<svg width="1200" height="600" viewBox="0 0 1200 600" xmlns="http://www.w3.org/2000/svg" role="img" aria-label="Mapa do CapyUniverse">
  <defs>
    <linearGradient id="bg" x1="0" y1="0" x2="1200" y2="600">
      <stop stop-color="#020617"/>
      <stop offset="1" stop-color="#1E1B4B"/>
    </linearGradient>
    <linearGradient id="node" x1="0" y1="0" x2="1" y2="1">
      <stop stop-color="#22D3EE"/>
      <stop offset="0.5" stop-color="#7C3AED"/>
      <stop offset="1" stop-color="#F97316"/>
    </linearGradient>
  </defs>
  <rect width="1200" height="600" rx="36" fill="url(#bg)"/>
  <circle cx="600" cy="300" r="96" fill="url(#node)" opacity="0.95"/>
  <text x="600" y="292" text-anchor="middle" fill="white" font-family="Inter, Arial" font-size="30" font-weight="800">CapyUniverse</text>
  <text x="600" y="326" text-anchor="middle" fill="#E0F2FE" font-family="Inter, Arial" font-size="16" font-weight="600">Core • Hub Local • Agentes IA</text>
  <g stroke="#93C5FD" stroke-width="3" opacity="0.75">
    <line x1="506" y1="276" x2="300" y2="150"/>
    <line x1="694" y1="276" x2="900" y2="150"/>
    <line x1="502" y1="328" x2="300" y2="450"/>
    <line x1="698" y1="328" x2="900" y2="450"/>
    <line x1="600" y1="204" x2="600" y2="100"/>
    <line x1="600" y1="396" x2="600" y2="500"/>
  </g>
  <g font-family="Inter, Arial" font-weight="700">
    <g><circle cx="300" cy="150" r="58" fill="#0F172A" stroke="#22D3EE" stroke-width="3"/><text x="300" y="145" text-anchor="middle" fill="white" font-size="18">CapyTools</text><text x="300" y="170" text-anchor="middle" fill="#BAE6FD" font-size="12">OCR • PDF • Planner</text></g>
    <g><circle cx="900" cy="150" r="58" fill="#0F172A" stroke="#A78BFA" stroke-width="3"/><text x="900" y="145" text-anchor="middle" fill="white" font-size="18">Agentes</text><text x="900" y="170" text-anchor="middle" fill="#DDD6FE" font-size="12">Engenharia • Docs</text></g>
    <g><circle cx="300" cy="450" r="58" fill="#0F172A" stroke="#F97316" stroke-width="3"/><text x="300" y="445" text-anchor="middle" fill="white" font-size="18">Produtos</text><text x="300" y="470" text-anchor="middle" fill="#FED7AA" font-size="12">ValeRepor • Bicou</text></g>
    <g><circle cx="900" cy="450" r="58" fill="#0F172A" stroke="#34D399" stroke-width="3"/><text x="900" y="445" text-anchor="middle" fill="white" font-size="18">Conhecimento</text><text x="900" y="470" text-anchor="middle" fill="#BBF7D0" font-size="12">CapyMind</text></g>
    <g><circle cx="600" cy="100" r="52" fill="#0F172A" stroke="#FACC15" stroke-width="3"/><text x="600" y="96" text-anchor="middle" fill="white" font-size="17">Governança</text><text x="600" y="119" text-anchor="middle" fill="#FEF3C7" font-size="12">Padrões</text></g>
    <g><circle cx="600" cy="500" r="52" fill="#0F172A" stroke="#FB7185" stroke-width="3"/><text x="600" y="496" text-anchor="middle" fill="white" font-size="17">Roadmap</text><text x="600" y="519" text-anchor="middle" fill="#FFE4E6" font-size="12">Local → Cloud</text></g>
  </g>
</svg>
